# xmcd CD database file
#
# Track frame offsets:
#	150
#	49350
#	90300
#	131250
#	154500
#	181275
#	199575
#	222825
#	243750
#	268800
#
# Disc length: 4450 seconds
#
# Revision: 3
# Processed by: cddbd v1.4PL0 Copyright (c) Steve Scherf et al.
# Submitted via: CDex 1.50Beta7
#
DISCID=7f11600a
DTITLE=Chris Jarrett - Fire
DYEAR=1991
DGENRE=Jazz
TTITLE0=broken stone
TTITLE1=blue nights - white nights
TTITLE2=3 folk songs
TTITLE3=rondo 21
TTITLE4=down south
TTITLE5=dance (from 2 dances)
TTITLE6=fire
TTITLE7=paprika lady
TTITLE8=2 scenes from "... liebt mich nicht" for two pianos
TTITLE9=transitions
EXTD=YEAR: 1991
EXTT0=
EXTT1=
EXTT2=
EXTT3=
EXTT4=
EXTT5=
EXTT6=
EXTT7=
EXTT8=
EXTT9=
PLAYORDER=
